<svg
                          xmlns="http://www.w3.org/2000/svg"
                          viewBox="0 0 24 24"
                          fill="white"
                          className="w-10 h-10 md:w-12 md:h-12"
                        >
                          <path d="M11.9999 3C8.41258 3 5.24327 4.95029 3.65002 7.9991C3.45867 8.37697 3.57162 8.83553 3.9055 9.0723C4.23938 9.30907 4.68222 9.22879 4.93355 8.91537C5.11003 8.69322 5.29603 8.48392 5.49097 8.28898C7.52724 6.25271 10.4727 5.25 13.5 5.25C14.3284 5.25 15 4.57843 15 3.75C15 2.92157 14.3284 2.25 13.5 2.25C12.6716 2.25 12 2.92157 12 3.75V3.75C12 4.57843 11.3284 5.25 10.5 5.25C9.67157 5.25 9 4.57843 9 3.75V3.75C9 2.92157 8.32843 2.25 7.5 2.25C6.67157 2.25 6 2.92157 6 3.75C6 4.57843 5.32843 5.25 4.5 5.25C3.67157 5.25 3 4.57843 3 3.75" />
                          <path d="M12 12C13.6569 12 15 10.6569 15 9C15 7.34315 13.6569 6 12 6C10.3431 6 9 7.34315 9 9C9 10.6569 10.3431 12 12 12Z" />
                          <path d="M12 13.5C9.49997 13.5 7.24997 14.7 5.99997 16.5C5.39997 17.4 6.09997 18.5 7.19997 18.5H16.8C17.9 18.5 18.6 17.4 18 16.5C16.75 14.7 14.5 13.5 12 13.5Z" />
                        </svg>